<svg width="30" height="30" viewBox="0 0 30 30" fill="none" xmlns="http://www.w3.org/2000/svg">
<path d="M24.375 4.6875H5.625C4.0717 4.6875 2.8125 5.9467 2.8125 7.5V24.375C2.8125 25.9283 4.0717 27.1875 5.625 27.1875H24.375C25.9283 27.1875 27.1875 25.9283 27.1875 24.375V7.5C27.1875 5.9467 25.9283 4.6875 24.375 4.6875Z" stroke="white" stroke-width="2" stroke-linejoin="round"/>
<path d="M17.75 13.5938C17.75 13.8181 17.5681 14 17.3438 14C17.1194 14 16.9375 13.8181 16.9375 13.5938C16.9375 13.3694 17.1194 13.1875 17.3438 13.1875C17.5681 13.1875 17.75 13.3694 17.75 13.5938Z" fill="#F1BF3F" stroke="#F1BF3F" stroke-width="2"/>
<path d="M22.4375 13.5938C22.4375 13.8181 22.2556 14 22.0312 14C21.8069 14 21.625 13.8181 21.625 13.5938C21.625 13.3694 21.8069 13.1875 22.0312 13.1875C22.2556 13.1875 22.4375 13.3694 22.4375 13.5938Z" fill="#F1BF3F" stroke="#F1BF3F" stroke-width="2"/>
<path d="M17.75 18.2812C17.75 18.5056 17.5681 18.6875 17.3438 18.6875C17.1194 18.6875 16.9375 18.5056 16.9375 18.2812C16.9375 18.0569 17.1194 17.875 17.3438 17.875C17.5681 17.875 17.75 18.0569 17.75 18.2812Z" fill="#F1BF3F" stroke="#F1BF3F" stroke-width="2"/>
<path d="M22.4375 18.2812C22.4375 18.5056 22.2556 18.6875 22.0312 18.6875C21.8069 18.6875 21.625 18.5056 21.625 18.2812C21.625 18.0569 21.8069 17.875 22.0312 17.875C22.2556 17.875 22.4375 18.0569 22.4375 18.2812Z" fill="#F1BF3F" stroke="#F1BF3F" stroke-width="2"/>
<path d="M8.375 18.2812C8.375 18.5056 8.19312 18.6875 7.96875 18.6875C7.74438 18.6875 7.5625 18.5056 7.5625 18.2812C7.5625 18.0569 7.74438 17.875 7.96875 17.875C8.19312 17.875 8.375 18.0569 8.375 18.2812Z" fill="#F1BF3F" stroke="#F1BF3F" stroke-width="2"/>
<path d="M13.0625 18.2812C13.0625 18.5056 12.8806 18.6875 12.6562 18.6875C12.4319 18.6875 12.25 18.5056 12.25 18.2812C12.25 18.0569 12.4319 17.875 12.6562 17.875C12.8806 17.875 13.0625 18.0569 13.0625 18.2812Z" fill="#F1BF3F" stroke="#F1BF3F" stroke-width="2"/>
<path d="M8.375 22.9688C8.375 23.1931 8.19312 23.375 7.96875 23.375C7.74438 23.375 7.5625 23.1931 7.5625 22.9688C7.5625 22.7444 7.74438 22.5625 7.96875 22.5625C8.19312 22.5625 8.375 22.7444 8.375 22.9688Z" fill="#F1BF3F" stroke="#F1BF3F" stroke-width="2"/>
<path d="M13.0625 22.9688C13.0625 23.1931 12.8806 23.375 12.6562 23.375C12.4319 23.375 12.25 23.1931 12.25 22.9688C12.25 22.7444 12.4319 22.5625 12.6562 22.5625C12.8806 22.5625 13.0625 22.7444 13.0625 22.9688Z" fill="#F1BF3F" stroke="#F1BF3F" stroke-width="2"/>
<path d="M17.75 22.9688C17.75 23.1931 17.5681 23.375 17.3438 23.375C17.1194 23.375 16.9375 23.1931 16.9375 22.9688C16.9375 22.7444 17.1194 22.5625 17.3438 22.5625C17.5681 22.5625 17.75 22.7444 17.75 22.9688Z" fill="#F1BF3F" stroke="#F1BF3F" stroke-width="2"/>
<path d="M7.5 2.8125V4.6875M22.5 2.8125V4.6875" stroke="white" stroke-width="2" stroke-linecap="round" stroke-linejoin="round"/>
<path d="M27.1875 9.375H2.8125" stroke="white" stroke-width="2" stroke-linejoin="round"/>
</svg>
