<svg width="35" height="35" viewBox="0 0 35 35" fill="none" xmlns="http://www.w3.org/2000/svg">
<path d="M3.3199 1.80099C3.42214 0.778589 4.28247 0 5.30998 0H33C34.1046 0 35 0.895431 35 2V33C35 34.1046 34.1046 35 33 35H2.20998C1.02673 35 0.102164 33.9784 0.219901 32.801L3.3199 1.80099Z" fill="url(#paint0_linear_280_14881)"/>
<path d="M16.0781 17.0625H12.3594C12.0983 17.0625 11.8479 16.9588 11.6633 16.7742C11.4787 16.5896 11.375 16.3392 11.375 16.0781V12.3594C11.375 12.0983 11.4787 11.8479 11.6633 11.6633C11.8479 11.4787 12.0983 11.375 12.3594 11.375H16.0781C16.3392 11.375 16.5896 11.4787 16.7742 11.6633C16.9588 11.8479 17.0625 12.0983 17.0625 12.3594V16.0781C17.0625 16.3392 16.9588 16.5896 16.7742 16.7742C16.5896 16.9588 16.3392 17.0625 16.0781 17.0625ZM22.6406 17.0625H18.9219C18.6608 17.0625 18.4104 16.9588 18.2258 16.7742C18.0412 16.5896 17.9375 16.3392 17.9375 16.0781V12.3594C17.9375 12.0983 18.0412 11.8479 18.2258 11.6633C18.4104 11.4787 18.6608 11.375 18.9219 11.375H22.6406C22.9017 11.375 23.1521 11.4787 23.3367 11.6633C23.5213 11.8479 23.625 12.0983 23.625 12.3594V16.0781C23.625 16.3392 23.5213 16.5896 23.3367 16.7742C23.1521 16.9588 22.9017 17.0625 22.6406 17.0625ZM16.0781 23.625H12.3594C12.0983 23.625 11.8479 23.5213 11.6633 23.3367C11.4787 23.1521 11.375 22.9017 11.375 22.6406V18.9219C11.375 18.6608 11.4787 18.4104 11.6633 18.2258C11.8479 18.0412 12.0983 17.9375 12.3594 17.9375H16.0781C16.3392 17.9375 16.5896 18.0412 16.7742 18.2258C16.9588 18.4104 17.0625 18.6608 17.0625 18.9219V22.6406C17.0625 22.9017 16.9588 23.1521 16.7742 23.3367C16.5896 23.5213 16.3392 23.625 16.0781 23.625ZM22.6406 23.625H18.9219C18.6608 23.625 18.4104 23.5213 18.2258 23.3367C18.0412 23.1521 17.9375 22.9017 17.9375 22.6406V18.9219C17.9375 18.6608 18.0412 18.4104 18.2258 18.2258C18.4104 18.0412 18.6608 17.9375 18.9219 17.9375H22.6406C22.9017 17.9375 23.1521 18.0412 23.3367 18.2258C23.5213 18.4104 23.625 18.6608 23.625 18.9219V22.6406C23.625 22.9017 23.5213 23.1521 23.3367 23.3367C23.1521 23.5213 22.9017 23.625 22.6406 23.625Z" fill="white"/>
<defs>
<linearGradient id="paint0_linear_280_14881" x1="1.17214e-07" y1="17" x2="35" y2="17" gradientUnits="userSpaceOnUse">
<stop stop-color="#DFBF68"/>
<stop offset="0.234375" stop-color="#C0A457"/>
<stop offset="0.491997" stop-color="#BFA04B"/>
<stop offset="0.807292" stop-color="#C8AA5A"/>
<stop offset="1" stop-color="#DFBF68"/>
</linearGradient>
</defs>
</svg>
