<svg width="31" height="30" viewBox="0 0 31 30" fill="none" xmlns="http://www.w3.org/2000/svg">
<path d="M20.1875 10.3125H22.5312C23.1529 10.3125 23.749 10.5594 24.1885 10.999C24.6281 11.4385 24.875 12.0346 24.875 12.6562V24.8438C24.875 25.4654 24.6281 26.0615 24.1885 26.501C23.749 26.9406 23.1529 27.1875 22.5312 27.1875H8.46875C7.84715 27.1875 7.25101 26.9406 6.81147 26.501C6.37193 26.0615 6.125 25.4654 6.125 24.8438V12.6562C6.125 12.0346 6.37193 11.4385 6.81147 10.999C7.25101 10.5594 7.84715 10.3125 8.46875 10.3125H10.8125" stroke="#FFD15F" stroke-width="2" stroke-linecap="round" stroke-linejoin="round"/>
<path d="M10.8125 15.9375L15.5 20.625L20.1875 15.9375M15.5 2.8125V19.6875" stroke="#FFD15F" stroke-width="2" stroke-linecap="round" stroke-linejoin="round"/>
</svg>
