<svg width="31" height="30" viewBox="0 0 31 30" fill="none" xmlns="http://www.w3.org/2000/svg">
<path d="M26.0469 5.625H4.95312C4.04703 5.625 3.3125 6.35953 3.3125 7.26562V22.7344C3.3125 23.6405 4.04703 24.375 4.95312 24.375H26.0469C26.953 24.375 27.6875 23.6405 27.6875 22.7344V7.26562C27.6875 6.35953 26.953 5.625 26.0469 5.625Z" stroke="#FFD15F" stroke-linejoin="round"/>
<path d="M26.0469 19.6875H24.6406C23.7345 19.6875 23 20.422 23 21.3281V22.7344C23 23.6405 23.7345 24.375 24.6406 24.375H26.0469C26.953 24.375 27.6875 23.6405 27.6875 22.7344V21.3281C27.6875 20.422 26.953 19.6875 26.0469 19.6875Z" stroke="#FFD15F" stroke-linejoin="round"/>
<path d="M26.0469 15H24.6406C23.7345 15 23 15.7345 23 16.6406V18.0469C23 18.953 23.7345 19.6875 24.6406 19.6875H26.0469C26.953 19.6875 27.6875 18.953 27.6875 18.0469V16.6406C27.6875 15.7345 26.953 15 26.0469 15Z" stroke="#FFD15F" stroke-linejoin="round"/>
<path d="M26.0469 10.3125H24.6406C23.7345 10.3125 23 11.047 23 11.9531V13.3594C23 14.2655 23.7345 15 24.6406 15H26.0469C26.953 15 27.6875 14.2655 27.6875 13.3594V11.9531C27.6875 11.047 26.953 10.3125 26.0469 10.3125Z" stroke="#FFD15F" stroke-linejoin="round"/>
<path d="M26.0469 5.625H24.6406C23.7345 5.625 23 6.35953 23 7.26562V8.67188C23 9.57797 23.7345 10.3125 24.6406 10.3125H26.0469C26.953 10.3125 27.6875 9.57797 27.6875 8.67188V7.26562C27.6875 6.35953 26.953 5.625 26.0469 5.625Z" stroke="#FFD15F" stroke-linejoin="round"/>
<path d="M6.35938 19.6875H4.95312C4.04703 19.6875 3.3125 20.422 3.3125 21.3281V22.7344C3.3125 23.6405 4.04703 24.375 4.95312 24.375H6.35938C7.26547 24.375 8 23.6405 8 22.7344V21.3281C8 20.422 7.26547 19.6875 6.35938 19.6875Z" stroke="#FFD15F" stroke-linejoin="round"/>
<path d="M6.35938 15H4.95312C4.04703 15 3.3125 15.7345 3.3125 16.6406V18.0469C3.3125 18.953 4.04703 19.6875 4.95312 19.6875H6.35938C7.26547 19.6875 8 18.953 8 18.0469V16.6406C8 15.7345 7.26547 15 6.35938 15Z" stroke="#FFD15F" stroke-linejoin="round"/>
<path d="M6.35938 10.3125H4.95312C4.04703 10.3125 3.3125 11.047 3.3125 11.9531V13.3594C3.3125 14.2655 4.04703 15 4.95312 15H6.35938C7.26547 15 8 14.2655 8 13.3594V11.9531C8 11.047 7.26547 10.3125 6.35938 10.3125Z" stroke="#FFD15F" stroke-linejoin="round"/>
<path d="M6.35938 5.625H4.95312C4.04703 5.625 3.3125 6.35953 3.3125 7.26562V8.67188C3.3125 9.57797 4.04703 10.3125 4.95312 10.3125H6.35938C7.26547 10.3125 8 9.57797 8 8.67188V7.26562C8 6.35953 7.26547 5.625 6.35938 5.625Z" stroke="#FFD15F" stroke-linejoin="round"/>
<path d="M21.3594 5.625H9.64062C8.73453 5.625 8 6.35953 8 7.26562V13.3594C8 14.2655 8.73453 15 9.64062 15H21.3594C22.2655 15 23 14.2655 23 13.3594V7.26562C23 6.35953 22.2655 5.625 21.3594 5.625Z" stroke="#FFD15F" stroke-linejoin="round"/>
<path d="M21.3594 15H9.64062C8.73453 15 8 15.7345 8 16.6406V22.7344C8 23.6405 8.73453 24.375 9.64062 24.375H21.3594C22.2655 24.375 23 23.6405 23 22.7344V16.6406C23 15.7345 22.2655 15 21.3594 15Z" stroke="#FFD15F" stroke-linejoin="round"/>
</svg>
