<svg width="20" height="18" viewBox="0 0 20 18" fill="none" xmlns="http://www.w3.org/2000/svg">
<path d="M6.99438 14.625V16.875M3.39069 1.125H10.5981C10.9167 1.125 11.2222 1.24353 11.4475 1.4545C11.6728 1.66548 11.7993 1.95163 11.7993 2.25V16.7344C11.7993 16.7717 11.7835 16.8074 11.7553 16.8338C11.7272 16.8602 11.689 16.875 11.6492 16.875H2.18945V2.25C2.18945 1.95163 2.31601 1.66548 2.54129 1.4545C2.76656 1.24353 3.0721 1.125 3.39069 1.125ZM12.3999 6.75H16.6042C16.9228 6.75 17.2284 6.86853 17.4536 7.07951C17.6789 7.29048 17.8055 7.57663 17.8055 7.875V16.875H11.7993V7.3125C11.7993 7.16332 11.8626 7.02024 11.9752 6.91475C12.0879 6.80926 12.2406 6.75 12.3999 6.75Z" stroke="#FFD15F" stroke-linecap="round" stroke-linejoin="round"/>
<path d="M4.06913 15.1828C3.94474 15.198 3.81837 15.1764 3.70777 15.1209C3.59717 15.0655 3.50789 14.979 3.45245 14.8736C3.39701 14.7682 3.37821 14.6492 3.39867 14.5333C3.41913 14.4173 3.47783 14.3103 3.56654 14.2273C3.65525 14.1442 3.76951 14.0892 3.89328 14.07C4.01705 14.0509 4.14412 14.0685 4.25666 14.1204C4.36919 14.1723 4.46155 14.2559 4.52076 14.3595C4.57996 14.4631 4.60305 14.5814 4.58679 14.6979C4.56962 14.8209 4.50956 14.9351 4.41594 15.0227C4.32233 15.1104 4.2004 15.1667 4.06913 15.1828ZM4.06913 12.3703C3.94474 12.3855 3.81837 12.3639 3.70777 12.3084C3.59717 12.253 3.50789 12.1665 3.45245 12.0611C3.39701 11.9557 3.37821 11.8367 3.39867 11.7208C3.41913 11.6048 3.47783 11.4978 3.56654 11.4148C3.65525 11.3317 3.76951 11.2767 3.89328 11.2575C4.01705 11.2384 4.14412 11.256 4.25666 11.3079C4.36919 11.3598 4.46155 11.4434 4.52076 11.547C4.57996 11.6506 4.60305 11.7689 4.58679 11.8854C4.56962 12.0084 4.50956 12.1226 4.41594 12.2102C4.32233 12.2979 4.2004 12.3542 4.06913 12.3703ZM4.06913 9.55775C3.94474 9.57299 3.81837 9.55136 3.70777 9.49591C3.59717 9.44046 3.50789 9.35397 3.45245 9.24857C3.39701 9.14318 3.37821 9.02417 3.39867 8.90825C3.41913 8.79234 3.47783 8.68533 3.56654 8.60225C3.65525 8.51918 3.76951 8.4642 3.89328 8.44503C4.01705 8.42587 4.14412 8.44348 4.25666 8.4954C4.36919 8.54732 4.46155 8.63094 4.52076 8.73452C4.57996 8.8381 4.60305 8.95645 4.58679 9.07295C4.56962 9.19589 4.50956 9.31007 4.41594 9.39775C4.32233 9.48542 4.2004 9.54167 4.06913 9.55775ZM4.06913 6.74525C3.94474 6.76049 3.81837 6.73886 3.70777 6.68341C3.59717 6.62796 3.50789 6.54147 3.45245 6.43607C3.39701 6.33068 3.37821 6.21167 3.39867 6.09575C3.41913 5.97984 3.47783 5.87283 3.56654 5.78975C3.65525 5.70668 3.76951 5.6517 3.89328 5.63253C4.01705 5.61337 4.14412 5.63098 4.25666 5.6829C4.36919 5.73482 4.46155 5.81844 4.52076 5.92202C4.57996 6.0256 4.60305 6.14395 4.58679 6.26045C4.56962 6.38339 4.50956 6.49757 4.41594 6.58525C4.32233 6.67292 4.2004 6.72917 4.06913 6.74525ZM4.06913 3.93275C3.94474 3.94799 3.81837 3.92636 3.70777 3.87091C3.59717 3.81546 3.50789 3.72897 3.45245 3.62357C3.39701 3.51818 3.37821 3.39917 3.39867 3.28325C3.41913 3.16734 3.47783 3.06033 3.56654 2.97725C3.65525 2.89418 3.76951 2.8392 3.89328 2.82003C4.01705 2.80087 4.14412 2.81848 4.25666 2.8704C4.36919 2.92232 4.46155 3.00594 4.52076 3.10952C4.57996 3.2131 4.60305 3.33145 4.58679 3.44795C4.56962 3.57089 4.50956 3.68507 4.41594 3.77275C4.32233 3.86042 4.2004 3.91667 4.06913 3.93275ZM7.07221 12.3703C6.94782 12.3855 6.82145 12.3639 6.71085 12.3084C6.60025 12.253 6.51097 12.1665 6.45553 12.0611C6.40009 11.9557 6.38129 11.8367 6.40175 11.7208C6.42221 11.6048 6.48091 11.4978 6.56962 11.4148C6.65833 11.3317 6.77259 11.2767 6.89636 11.2575C7.02013 11.2384 7.1472 11.256 7.25974 11.3079C7.37227 11.3598 7.46463 11.4434 7.52384 11.547C7.58304 11.6506 7.60613 11.7689 7.58987 11.8854C7.5727 12.0084 7.51264 12.1226 7.41902 12.2102C7.32541 12.2979 7.20348 12.3542 7.07221 12.3703ZM7.07221 9.55775C6.94782 9.57299 6.82145 9.55136 6.71085 9.49591C6.60025 9.44046 6.51097 9.35397 6.45553 9.24857C6.40009 9.14318 6.38129 9.02417 6.40175 8.90825C6.42221 8.79234 6.48091 8.68533 6.56962 8.60225C6.65833 8.51918 6.77259 8.4642 6.89636 8.44503C7.02013 8.42587 7.1472 8.44348 7.25974 8.4954C7.37227 8.54732 7.46463 8.63094 7.52384 8.73452C7.58304 8.8381 7.60613 8.95645 7.58987 9.07295C7.5727 9.19589 7.51264 9.31007 7.41902 9.39775C7.32541 9.48542 7.20348 9.54167 7.07221 9.55775ZM7.07221 6.74525C6.94782 6.76049 6.82145 6.73886 6.71085 6.68341C6.60025 6.62796 6.51097 6.54147 6.45553 6.43607C6.40009 6.33068 6.38129 6.21167 6.40175 6.09575C6.42221 5.97984 6.48091 5.87283 6.56962 5.78975C6.65833 5.70668 6.77259 5.6517 6.89636 5.63253C7.02013 5.61337 7.1472 5.63098 7.25974 5.6829C7.37227 5.73482 7.46463 5.81844 7.52384 5.92202C7.58304 6.0256 7.60613 6.14395 7.58987 6.26045C7.5727 6.38339 7.51264 6.49757 7.41902 6.58525C7.32541 6.67292 7.20348 6.72917 7.07221 6.74525ZM7.07221 3.93275C6.94782 3.94799 6.82145 3.92636 6.71085 3.87091C6.60025 3.81546 6.51097 3.72897 6.45553 3.62357C6.40009 3.51818 6.38129 3.39917 6.40175 3.28325C6.42221 3.16734 6.48091 3.06033 6.56962 2.97725C6.65833 2.89418 6.77259 2.8392 6.89636 2.82003C7.02013 2.80087 7.1472 2.81848 7.25974 2.8704C7.37227 2.92232 7.46463 3.00594 7.52384 3.10952C7.58304 3.2131 7.60613 3.33145 7.58987 3.44795C7.5727 3.57089 7.51264 3.68507 7.41902 3.77275C7.32541 3.86042 7.20348 3.91667 7.07221 3.93275ZM10.0753 15.1828C9.9509 15.198 9.82453 15.1764 9.71393 15.1209C9.60333 15.0655 9.51405 14.979 9.45861 14.8736C9.40317 14.7682 9.38437 14.6492 9.40483 14.5333C9.42529 14.4173 9.48399 14.3103 9.5727 14.2273C9.66141 14.1442 9.77567 14.0892 9.89944 14.07C10.0232 14.0509 10.1503 14.0685 10.2628 14.1204C10.3754 14.1723 10.4677 14.2559 10.5269 14.3595C10.5861 14.4631 10.6092 14.5814 10.5929 14.6979C10.5758 14.8209 10.5157 14.9351 10.4221 15.0227C10.3285 15.1104 10.2066 15.1667 10.0753 15.1828ZM10.0753 12.3703C9.9509 12.3855 9.82453 12.3639 9.71393 12.3084C9.60333 12.253 9.51405 12.1665 9.45861 12.0611C9.40317 11.9557 9.38437 11.8367 9.40483 11.7208C9.42529 11.6048 9.48399 11.4978 9.5727 11.4148C9.66141 11.3317 9.77567 11.2767 9.89944 11.2575C10.0232 11.2384 10.1503 11.256 10.2628 11.3079C10.3754 11.3598 10.4677 11.4434 10.5269 11.547C10.5861 11.6506 10.6092 11.7689 10.5929 11.8854C10.5758 12.0084 10.5157 12.1226 10.4221 12.2102C10.3285 12.2979 10.2066 12.3542 10.0753 12.3703ZM10.0753 9.55775C9.9509 9.57299 9.82453 9.55136 9.71393 9.49591C9.60333 9.44046 9.51405 9.35397 9.45861 9.24857C9.40317 9.14318 9.38437 9.02417 9.40483 8.90825C9.42529 8.79234 9.48399 8.68533 9.5727 8.60225C9.66141 8.51918 9.77567 8.4642 9.89944 8.44503C10.0232 8.42587 10.1503 8.44348 10.2628 8.4954C10.3754 8.54732 10.4677 8.63094 10.5269 8.73452C10.5861 8.8381 10.6092 8.95645 10.5929 9.07295C10.5758 9.19589 10.5157 9.31007 10.4221 9.39775C10.3285 9.48542 10.2066 9.54167 10.0753 9.55775Z" fill="#FFD15F"/>
<path d="M10.4228 6.58603C10.6566 6.36705 10.6557 6.01111 10.4207 5.79103C10.1857 5.57095 9.80563 5.57006 9.57181 5.78904C9.33799 6.00803 9.33894 6.36396 9.57393 6.58404C9.80893 6.80412 10.189 6.80501 10.4228 6.58603Z" fill="white"/>
<path d="M10.075 3.93275C9.9506 3.94799 9.82423 3.92636 9.71363 3.87091C9.60303 3.81546 9.51375 3.72897 9.45831 3.62357C9.40287 3.51818 9.38407 3.39917 9.40453 3.28325C9.42499 3.16734 9.48369 3.06033 9.5724 2.97725C9.66111 2.89418 9.77537 2.8392 9.89914 2.82003C10.0229 2.80087 10.15 2.81848 10.2625 2.8704C10.3751 2.92232 10.4674 3.00594 10.5266 3.10952C10.5858 3.2131 10.6089 3.33145 10.5926 3.44795C10.5755 3.57089 10.5154 3.68507 10.4218 3.77275C10.3282 3.86042 10.2063 3.91667 10.075 3.93275ZM15.4025 14.0623C15.2837 14.0623 15.1675 14.0953 15.0688 14.1571C14.97 14.2189 14.893 14.3068 14.8476 14.4096C14.8021 14.5123 14.7902 14.6254 14.8134 14.7346C14.8366 14.8437 14.8938 14.9439 14.9778 15.0226C15.0617 15.1012 15.1688 15.1548 15.2853 15.1765C15.4018 15.1982 15.5225 15.1871 15.6323 15.1445C15.742 15.1019 15.8359 15.0298 15.9018 14.9373C15.9678 14.8448 16.0031 14.7361 16.0031 14.6248C16.0031 14.4756 15.9398 14.3326 15.8272 14.2271C15.7145 14.1216 15.5617 14.0623 15.4025 14.0623ZM15.4025 11.2498C15.2837 11.2498 15.1675 11.2828 15.0688 11.3446C14.97 11.4064 14.893 11.4943 14.8476 11.5971C14.8021 11.6998 14.7902 11.8129 14.8134 11.9221C14.8366 12.0312 14.8938 12.1314 14.9778 12.2101C15.0617 12.2887 15.1688 12.3423 15.2853 12.364C15.4018 12.3857 15.5225 12.3746 15.6323 12.332C15.742 12.2894 15.8359 12.2173 15.9018 12.1248C15.9678 12.0323 16.0031 11.9236 16.0031 11.8123C16.0031 11.6631 15.9398 11.5201 15.8272 11.4146C15.7145 11.3091 15.5617 11.2498 15.4025 11.2498ZM15.4025 8.43732C15.2837 8.43732 15.1675 8.47031 15.0688 8.53212C14.97 8.59393 14.893 8.68178 14.8476 8.78456C14.8021 8.88734 14.7902 9.00045 14.8134 9.10956C14.8366 9.21867 14.8938 9.3189 14.9778 9.39757C15.0617 9.47624 15.1688 9.52981 15.2853 9.55151C15.4018 9.57322 15.5225 9.56208 15.6323 9.5195C15.742 9.47693 15.8359 9.40483 15.9018 9.31233C15.9678 9.21983 16.0031 9.11107 16.0031 8.99982C16.0031 8.85064 15.9398 8.70756 15.8272 8.60207C15.7145 8.49658 15.5617 8.43732 15.4025 8.43732ZM13 14.0623C12.8812 14.0623 12.7651 14.0953 12.6663 14.1571C12.5675 14.2189 12.4906 14.3068 12.4451 14.4096C12.3996 14.5123 12.3877 14.6254 12.4109 14.7346C12.4341 14.8437 12.4913 14.9439 12.5753 15.0226C12.6593 15.1012 12.7663 15.1548 12.8828 15.1765C12.9993 15.1982 13.1201 15.1871 13.2298 15.1445C13.3396 15.1019 13.4334 15.0298 13.4994 14.9373C13.5654 14.8448 13.6006 14.7361 13.6006 14.6248C13.6006 14.4756 13.5373 14.3326 13.4247 14.2271C13.3121 14.1216 13.1593 14.0623 13 14.0623ZM13 11.2498C12.8812 11.2498 12.7651 11.2828 12.6663 11.3446C12.5675 11.4064 12.4906 11.4943 12.4451 11.5971C12.3996 11.6998 12.3877 11.8129 12.4109 11.9221C12.4341 12.0312 12.4913 12.1314 12.5753 12.2101C12.6593 12.2887 12.7663 12.3423 12.8828 12.364C12.9993 12.3857 13.1201 12.3746 13.2298 12.332C13.3396 12.2894 13.4334 12.2173 13.4994 12.1248C13.5654 12.0323 13.6006 11.9236 13.6006 11.8123C13.6006 11.6631 13.5373 11.5201 13.4247 11.4146C13.3121 11.3091 13.1593 11.2498 13 11.2498ZM13 8.43732C12.8812 8.43732 12.7651 8.47031 12.6663 8.53212C12.5675 8.59393 12.4906 8.68178 12.4451 8.78456C12.3996 8.88734 12.3877 9.00045 12.4109 9.10956C12.4341 9.21867 12.4913 9.3189 12.5753 9.39757C12.6593 9.47624 12.7663 9.52981 12.8828 9.55151C12.9993 9.57322 13.1201 9.56208 13.2298 9.5195C13.3396 9.47693 13.4334 9.40483 13.4994 9.31233C13.5654 9.21983 13.6006 9.11107 13.6006 8.99982C13.6006 8.85064 13.5373 8.70756 13.4247 8.60207C13.3121 8.49658 13.1593 8.43732 13 8.43732Z" fill="white"/>
</svg>
