<svg width="20" height="18" viewBox="0 0 20 18" fill="none" xmlns="http://www.w3.org/2000/svg">
<path d="M10.1171 3.375V1.96875M10.1171 16.0312V14.625M16.1232 9H17.6248M2.60938 9H4.11091M10.1171 3.9375C9.04796 3.9375 8.00285 4.23441 7.11392 4.79068C6.22498 5.34696 5.53214 6.13761 5.123 7.06267C4.71387 7.98772 4.60682 9.00562 4.8154 9.98765C5.02397 10.9697 5.5388 11.8717 6.29478 12.5797C7.05076 13.2877 8.01393 13.7699 9.06251 13.9652C10.1111 14.1606 11.198 14.0603 12.1857 13.6771C13.1734 13.294 14.0177 12.6451 14.6116 11.8126C15.2056 10.9801 15.5226 10.0013 15.5226 9C15.5226 7.65734 14.9531 6.36967 13.9394 5.42027C12.9256 4.47087 11.5507 3.9375 10.1171 3.9375Z" stroke="#FFD15F" stroke-linecap="round" stroke-linejoin="round"/>
</svg>
