<svg width="20" height="18" viewBox="0 0 20 18" fill="none" xmlns="http://www.w3.org/2000/svg">
<path d="M2.11914 14.625V10.6875C2.12102 10.0913 2.37474 9.52003 2.82488 9.09846C3.27503 8.67688 3.88501 8.43926 4.5216 8.4375H15.3327C15.9693 8.43926 16.5793 8.67688 17.0294 9.09846C17.4796 9.52003 17.7333 10.0913 17.7352 10.6875V14.625M14.7321 8.4375H3.92099V4.78125C3.92218 4.40863 4.08076 4.05159 4.36209 3.78811C4.64343 3.52463 5.02466 3.37611 5.42253 3.375H14.4318C14.8296 3.37611 15.2109 3.52463 15.4922 3.78811C15.7735 4.05159 15.9321 4.40863 15.9333 4.78125V8.4375H14.7321Z" stroke="#FFD15F" stroke-linecap="round" stroke-linejoin="round"/>
<path d="M2.11914 14.625V14.3438C2.11983 14.1202 2.21498 13.9059 2.38378 13.7478C2.55259 13.5898 2.78134 13.5006 3.02006 13.5H16.8342C17.073 13.5006 17.3017 13.5898 17.4705 13.7478C17.6393 13.9059 17.7345 14.1202 17.7352 14.3438V14.625M4.5216 8.4375V7.875C4.5225 7.57689 4.64934 7.29122 4.87442 7.08043C5.0995 6.86963 5.40452 6.75083 5.72284 6.75H8.72592C9.04423 6.75083 9.34925 6.86963 9.57433 7.08043C9.79941 7.29122 9.92626 7.57689 9.92715 7.875M9.92715 7.875V8.4375M9.92715 7.875C9.92804 7.57689 10.0549 7.29122 10.28 7.08043C10.505 6.86963 10.8101 6.75083 11.1284 6.75H14.1315C14.4498 6.75083 14.7548 6.86963 14.9799 7.08043C15.205 7.29122 15.3318 7.57689 15.3327 7.875V8.4375" stroke="#FFD15F" stroke-linecap="round" stroke-linejoin="round"/>
</svg>
