<svg width="20" height="19" viewBox="0 0 20 19" fill="none" xmlns="http://www.w3.org/2000/svg">
<path d="M0.642578 18.5115H1.88644M19.8623 18.5115H18.5783M18.5783 18.5115V3.74322M18.5783 18.5115H15.248M18.5783 3.74322H19.6215V2.08399C19.6215 1.49997 19.1232 1.04024 18.5411 1.08723L7.98539 1.93946V3.74322H9.22926M18.5783 3.74322H9.22926M9.22926 3.74322V8.51566M13.1615 10.0188V7.98956H10.7139V9.11691M15.4085 11.4092H16.9733V13.5887H15.4085M8.30639 5.3215H6.21991M6.21991 5.3215L5.01617 4.04384H1.88644V5.3215M6.21991 5.3215H1.88644M1.88644 5.3215H1.64258C1.09029 5.3215 0.642578 5.76922 0.642578 6.3215V13.0626H1.88644M1.88644 13.0626V18.5115M1.88644 13.0626H3.21056M1.88644 18.5115H5.09642M3.21056 11.6347H1.88644V6.63674H5.09642M8.30639 6.63674H5.09642M5.09642 6.63674V10.0188M5.01617 13.0337V13.0337C4.46163 13.2624 3.85255 12.8547 3.85255 12.2549V11.4092L9.22926 9.11691L14.7263 11.4092V12.2308C14.7263 12.8444 14.1057 13.2633 13.5367 13.0337V13.0337M5.01617 13.0337L9.22926 11.2965L13.5367 13.0337M5.01617 13.0337L5.09642 18.5115M5.09642 18.5115H6.46065M13.5367 13.0337V14.5658M8.94838 18.5115V14.0021H6.46065V18.5115M8.94838 18.5115H6.46065M8.94838 18.5115H13.1615M13.1615 18.5115C12.7067 18.2484 12.046 17.5344 13.0411 16.7829C13.3487 15.5303 14.2208 13.7541 15.248 16.6701C15.6358 16.9207 16.1788 17.6397 15.248 18.5115M13.1615 18.5115H15.248M10.7139 4.72025V7.01253H13.1615V4.72025H10.7139ZM14.4455 4.72025V7.01253H16.9733V4.72025H14.4455ZM14.4455 7.98956H16.9733V10.357H14.4455V7.98956ZM7.42365 12.7996V13.2881H7.98539V12.7996H7.42365ZM9.791 14.5658V16.6701H12.1182V14.5658H9.791ZM3.21056 14.0021V14.5658H3.85255V14.0021H3.21056Z" stroke="#FFD15F" stroke-width="0.5"/>
</svg>
